===================================================================================
===================================================================================
'##::::'##::::'###::::'##::::'##:'##::: ##:'########:'####:'##::: ##::'######:::===
 ##:::: ##:::'## ##::: ##:::: ##: ###:: ##:... ##..::. ##:: ###:: ##:'##... ##::===
 ##:::: ##::'##:. ##:: ##:::: ##: ####: ##:::: ##::::: ##:: ####: ##: ##:::..:::===
 #########:'##:::. ##: ##:::: ##: ## ## ##:::: ##::::: ##:: ## ## ##: ##::'####:===
 ##.... ##: #########: ##:::: ##: ##. ####:::: ##::::: ##:: ##. ####: ##::: ##::===
 ##:::: ##: ##.... ##: ##:::: ##: ##:. ###:::: ##::::: ##:: ##:. ###: ##::: ##::===
 ##:::: ##: ##:::: ##:. #######:: ##::. ##:::: ##::::'####: ##::. ##:. ######:::===
..:::::..::..:::::..:::.......:::..::::..:::::..:::::....::..::::..:::......::::======================================================================================

===================== SHINE - LUCIFER HD 720p (KOREAN MUSCI VEDIO) ==============

Format                           : MPEG-4
Format profile                   : Base Media / Version 2
Codec ID                         : mp42
File size                        : 60.8 MiB
Duration                         : 3mn 57s
Overall bit rate                 : 2 144 Kbps
Encoded date                     : UTC 2010-07-19 05:39:03
Tagged date                      : UTC 2010-07-19 05:39:03

Video
ID                               : 2
Format                           : AVC
Format/Info                      : Advanced Video Codec
Format profile                   : High@L3.1
Format settings, CABAC           : Yes
Format settings, ReFrames        : 1 frame
Format settings, GOP             : M=1, N=14
Codec ID                         : avc1
Codec ID/Info                    : Advanced Video Coding
Duration                         : 3mn 57s
Bit rate mode                    : Variable
Bit rate                         : 2 011 Kbps
Maximum bit rate                 : 3 662 Kbps
Width                            : 1 280 pixels
Height                           : 720 pixels
Display aspect ratio             : 16:9
Frame rate mode                  : Constant
Frame rate                       : 24.000 fps
Color space                      : YUV
Chroma subsampling               : 4:2:0
Bit depth                        : 8 bits
Scan type                        : Progressive
Bits/(Pixel*Frame)               : 0.091
Stream size                      : 57.0 MiB (94%)
Title                            : (C) 2007 Google Inc. v08.13.2007.
Encoded date                     : UTC 2010-07-19 05:39:03
Tagged date                      : UTC 2010-07-19 05:39:04

Audio
ID                               : 1
Format                           : AAC
Format/Info                      : Advanced Audio Codec
Format version                   : Version 4
Format profile                   : LC
Format settings, SBR             : No
Codec ID                         : 40
Duration                         : 3mn 57s
Bit rate mode                    : Variable
Bit rate                         : 132.3 Kbps
Maximum bit rate                 : 160 Kbps
Channel(s)                       : 2 channels
Channel positions                : Front: L R
Sampling rate                    : 44.1 KHz
Stream size                      : 3.69 MiB (6%)
Title                            : (C) 2007 Google Inc. v08.13.2007.
Encoded date                     : UTC 2010-07-19 05:39:03
Tagged date                      : UTC 2010-07-19 05:39:04

======================== SCREEN SHOTS ======================================

                      http://bayimg.com/fAjohaAdp
                      http://bayimg.com/FAjoIaADp
                      http://bayimg.com/fajONAADP

======================================================================================================================================================================
:'######::'##::::'##:'##::::'##:'##::::'##:'########:'########::===================
'##... ##: ##:::: ##: ###::'###: ###::'###: ##.....:: ##.... ##:===================
 ##:::..:: ##:::: ##: ####'####: ####'####: ##::::::: ##:::: ##:===================
. ######:: ##:::: ##: ## ### ##: ## ### ##: ######::: ########::===================
:..... ##: ##:::: ##: ##. #: ##: ##. #: ##: ##...:::: ##.. ##:::===================
'##::: ##: ##:::: ##: ##:.:: ##: ##:.:: ##: ##::::::: ##::. ##::===================
. ######::. #######:: ##:::: ##: ##:::: ##: ########: ##:::. ##:===================
:......::::.......:::..:::::..::..:::::..::........::..:::::..::===================
======================================================================================================================================================================
